ffmpeg started on 2016-12-07 at 10:25:47
Report written to "Output/x264/results/ffmpeg/sintelslow5000k.log"
Command line:
Tools/ffmpeg/ffmpeg -benchmark -y -i Input/y4m/sintel.y4m -c:v libx264 -preset slow -b:v 5000k -an Output/x264/encoded/sintelslow5000k.mkv
ffmpeg version N-82227-gdb23fde Copyright (c) 2000-2016 the FFmpeg developers
  built with gcc 5.4.0 (Ubuntu 5.4.0-6ubuntu1~16.04.2) 20160609
  configuration: --prefix=/home/jaroslav/ffmpeg_build --pkg-config-flags=--static --extra-cflags=-I/home/jaroslav/ffmpeg_build/include --extra-ldflags=-L/home/jaroslav/ffmpeg_build/lib --bindir=/home/jaroslav/bin --enable-gpl --enable-libass --enable-libfdk-aac --enable-libfreetype --enable-libmp3lame --enable-libopus --enable-libtheora --enable-libvorbis --enable-libvpx --enable-libx264 --enable-libx265 --enable-nvenc --enable-libmfx --enable-libxvid --enable-libgsm --enable-libopencore-amrnb --enable-version3 --enable-nonfree
  libavutil      55. 35.100 / 55. 35.100
  libavcodec     57. 66.101 / 57. 66.101
  libavformat    57. 57.100 / 57. 57.100
  libavdevice    57.  2.100 / 57.  2.100
  libavfilter     6. 66.100 /  6. 66.100
  libswscale      4.  3.100 /  4.  3.100
  libswresample   2.  4.100 /  2.  4.100
  libpostproc    54.  2.100 / 54.  2.100
Input #0, yuv4mpegpipe, from 'Input/y4m/sintel.y4m':
  Duration: 00:00:20.83, start: 0.000000, bitrate: 2057307 kb/s
    Stream #0:0: Video: rawvideo (I420 / 0x30323449), yuv420p(progressive), 4096x1744, SAR 1:1 DAR 256:109, 24 fps, 24 tbr, 24 tbn, 24 tbc
[libx264 @ 0x2b05120] using SAR=1/1
[libx264 @ 0x2b05120] using cpu capabilities: MMX2 SSE2Fast SSSE3 SSE4.2 AVX FMA3 AVX2 LZCNT BMI2
[libx264 @ 0x2b05120] profile High, level 5.1
[libx264 @ 0x2b05120] 264 - core 148 - H.264/MPEG-4 AVC codec - Copyleft 2003-2016 - http://www.videolan.org/x264.html - options: cabac=1 ref=5 deblock=1:0:0 analyse=0x3:0x113 me=hex subme=8 psy=1 psy_rd=1.00:0.00 mixed_ref=1 me_range=16 chroma_me=1 trellis=2 8x8dct=1 cqm=0 deadzone=21,11 fast_pskip=1 chroma_qp_offset=-2 threads=6 lookahead_threads=1 sliced_threads=0 nr=0 decimate=1 interlaced=0 bluray_compat=0 constrained_intra=0 bframes=3 b_pyramid=2 b_adapt=1 b_bias=0 direct=3 weightb=1 open_gop=0 weightp=2 keyint=250 keyint_min=24 scenecut=40 intra_refresh=0 rc_lookahead=50 rc=abr mbtree=1 bitrate=5000 ratetol=1.0 qcomp=0.60 qpmin=0 qpmax=69 qpstep=4 ip_ratio=1.40 aq=1:1.00
Output #0, matroska, to 'Output/x264/encoded/sintelslow5000k.mkv':
  Metadata:
    encoder         : Lavf57.57.100
    Stream #0:0: Video: h264 (libx264) (H264 / 0x34363248), yuv420p, 4096x1744 [SAR 1:1 DAR 256:109], q=-1--1, 5000 kb/s, 24 fps, 1k tbn, 24 tbc
    Metadata:
      encoder         : Lavc57.66.101 libx264
    Side data:
      cpb: bitrate max/min/avg: 0/0/5000000 buffer size: 0 vbv_delay: -1
Stream mapping:
  Stream #0:0 -> #0:0 (rawvideo (native) -> h264 (libx264))
Press [q] to stop, [?] for help
frame=    9 fps=0.0 q=0.0 size=       0kB time=00:00:00.00 bitrate=N/A speed=   0x    frame=   18 fps= 17 q=0.0 size=       0kB time=00:00:00.00 bitrate=N/A speed=   0x    frame=   27 fps= 17 q=0.0 size=       0kB time=00:00:00.00 bitrate=N/A speed=   0x    frame=   36 fps= 17 q=0.0 size=       0kB time=00:00:00.00 bitrate=N/A speed=   0x    frame=   40 fps= 13 q=0.0 size=       0kB time=00:00:00.00 bitrate=N/A speed=   0x    frame=   41 fps=7.2 q=0.0 size=       0kB time=00:00:00.00 bitrate=N/A speed=   0x    frame=   42 fps=4.8 q=0.0 size=       0kB time=00:00:00.00 bitrate=N/A speed=   0x    frame=   43 fps=3.9 q=0.0 size=       0kB time=00:00:00.00 bitrate=N/A speed=   0x    frame=   52 fps=4.5 q=0.0 size=       0kB time=00:00:00.00 bitrate=N/A speed=   0x    frame=   57 fps=3.9 q=0.0 size=       0kB time=00:00:00.00 bitrate=N/A speed=   0x    frame=   62 fps=4.1 q=31.0 size=       1kB time=-00:00:00.04 bitrate=N/A speed=N/A    frame=   63 fps=4.0 q=31.0 size=       1kB time=00:00:00.00 bitrate=5872.0kbits/s speed=6.37e-05x    frame=   65 fps=4.0 q=34.0 size=       1kB time=00:00:00.08 bitrate=  69.9kbits/s speed=0.00518x    frame=   68 fps=4.0 q=49.0 size=       1kB time=00:00:00.20 bitrate=  28.1kbits/s speed=0.0123x    frame=   71 fps=4.1 q=49.0 size=       1kB time=00:00:00.33 bitrate=  17.6kbits/s speed=0.0191x    frame=   75 fps=4.1 q=48.0 size=       1kB time=00:00:00.50 bitrate=  11.7kbits/s speed=0.0276x    frame=   80 fps=4.3 q=48.0 size=       1kB time=00:00:00.70 bitrate=   8.3kbits/s speed=0.038x    frame=   83 fps=4.3 q=48.0 size=       1kB time=00:00:00.83 bitrate=   7.0kbits/s speed=0.0433x    frame=   88 fps=4.4 q=47.0 size=       1kB time=00:00:01.04 bitrate=   5.6kbits/s speed=0.0527x    frame=   92 fps=4.5 q=47.0 size=       1kB time=00:00:01.20 bitrate=   4.9kbits/s speed=0.0592x    frame=   95 fps=4.5 q=47.0 size=       1kB time=00:00:01.33 bitrate=   4.4kbits/s speed=0.0636x    frame=   98 fps=4.6 q=46.0 size=       1kB time=00:00:01.45 bitrate=   4.0kbits/s speed=0.0679x    frame=  102 fps=4.6 q=46.0 size=       1kB time=00:00:01.62 bitrate=   3.6kbits/s speed=0.0735x    frame=  108 fps=4.7 q=45.0 size=       1kB time=00:00:01.87 bitrate=   3.1kbits/s speed=0.082x    frame=  112 fps=4.8 q=45.0 size=       1kB time=00:00:02.04 bitrate=   2.9kbits/s speed=0.087x    frame=  115 fps=4.8 q=45.0 size=       1kB time=00:00:02.16 bitrate=   2.7kbits/s speed=0.0904x    frame=  118 fps=4.8 q=45.0 size=       1kB time=00:00:02.29 bitrate=   2.6kbits/s speed=0.0933x    frame=  122 fps=4.8 q=45.0 size=       1kB time=00:00:02.45 bitrate=   2.4kbits/s speed=0.0967x    frame=  125 fps=4.8 q=45.0 size=       1kB time=00:00:02.58 bitrate=   2.3kbits/s speed=0.0993x    frame=  129 fps=4.8 q=45.0 size=       1kB time=00:00:02.75 bitrate=   2.1kbits/s speed=0.103x    frame=  132 fps=4.9 q=45.0 size=       1kB time=00:00:02.87 bitrate=   2.0kbits/s speed=0.106x    frame=  135 fps=4.8 q=45.0 size=       1kB time=00:00:03.00 bitrate=   2.0kbits/s speed=0.108x    frame=  139 fps=4.9 q=44.0 size=       1kB time=00:00:03.16 bitrate=   1.9kbits/s speed=0.112x    frame=  141 fps=4.9 q=44.0 size=       1kB time=00:00:03.25 bitrate=   1.8kbits/s speed=0.112x    frame=  143 fps=4.9 q=44.0 size=       1kB time=00:00:03.33 bitrate=   1.8kbits/s speed=0.113x    frame=  147 fps=4.9 q=44.0 size=       1kB time=00:00:03.50 bitrate=   1.7kbits/s speed=0.116x    frame=  150 fps=4.9 q=44.0 size=       1kB time=00:00:03.62 bitrate=   1.6kbits/s speed=0.118x    frame=  152 fps=4.9 q=42.0 size=       1kB time=00:00:03.70 bitrate=   1.6kbits/s speed=0.119x    frame=  157 fps=4.9 q=44.0 size=    2788kB time=00:00:03.91 bitrate=5828.3kbits/s speed=0.123x    frame=  162 fps=5.0 q=44.0 size=    2788kB time=00:00:04.12 bitrate=5534.5kbits/s speed=0.128x    frame=  164 fps=5.0 q=44.0 size=    2788kB time=00:00:04.20 bitrate=5425.3kbits/s speed=0.128x    frame=  171 fps=5.1 q=41.0 size=    2788kB time=00:00:04.50 bitrate=5073.4kbits/s speed=0.134x    frame=  175 fps=5.1 q=43.0 size=    2788kB time=00:00:04.66 bitrate=4891.9kbits/s speed=0.136x    frame=  181 fps=5.2 q=43.0 size=    2788kB time=00:00:04.91 bitrate=4643.2kbits/s speed=0.14x    frame=  186 fps=5.2 q=43.0 size=    2788kB time=00:00:05.12 bitrate=4454.8kbits/s speed=0.143x    frame=  188 fps=5.2 q=43.0 size=    2788kB time=00:00:05.20 bitrate=4383.8kbits/s speed=0.144x    frame=  193 fps=5.2 q=43.0 size=    2788kB time=00:00:05.41 bitrate=4214.7kbits/s speed=0.146x    frame=  197 fps=5.2 q=43.0 size=    2788kB time=00:00:05.58 bitrate=4089.4kbits/s speed=0.148x    frame=  202 fps=5.3 q=43.0 size=    2788kB time=00:00:05.79 bitrate=3941.9kbits/s speed=0.151x    frame=  206 fps=5.3 q=43.0 size=    2788kB time=00:00:05.95 bitrate=3832.1kbits/s speed=0.153x    frame=  210 fps=5.3 q=43.0 size=    2788kB time=00:00:06.12 bitrate=3727.6kbits/s speed=0.155x    frame=  215 fps=5.4 q=43.0 size=    2788kB time=00:00:06.33 bitrate=3605.2kbits/s speed=0.158x    frame=  221 fps=5.4 q=43.0 size=    4115kB time=00:00:06.58 bitrate=5119.5kbits/s speed=0.162x    frame=  224 fps=5.4 q=43.0 size=    4115kB time=00:00:06.70 bitrate=5024.1kbits/s speed=0.163x    frame=  228 fps=5.5 q=43.0 size=    4115kB time=00:00:06.87 bitrate=4902.1kbits/s speed=0.164x    frame=  231 fps=5.5 q=43.0 size=    4115kB time=00:00:07.00 bitrate=4814.5kbits/s speed=0.165x    frame=  234 fps=5.5 q=43.0 size=    4115kB time=00:00:07.12 bitrate=4730.1kbits/s speed=0.166x    frame=  237 fps=5.5 q=42.0 size=    4115kB time=00:00:07.25 bitrate=4648.5kbits/s speed=0.167x    frame=  241 fps=5.5 q=43.0 size=    4115kB time=00:00:07.41 bitrate=4543.9kbits/s speed=0.169x    frame=  249 fps=5.6 q=42.0 size=    4673kB time=00:00:07.75 bitrate=4938.9kbits/s speed=0.174x    frame=  253 fps=5.6 q=42.0 size=    4673kB time=00:00:07.91 bitrate=4834.7kbits/s speed=0.175x    frame=  257 fps=5.6 q=42.0 size=    4673kB time=00:00:08.08 bitrate=4735.4kbits/s speed=0.177x    frame=  261 fps=5.6 q=42.0 size=    4673kB time=00:00:08.25 bitrate=4639.6kbits/s speed=0.177x    frame=  264 fps=5.6 q=42.0 size=    4673kB time=00:00:08.37 bitrate=4570.4kbits/s speed=0.178x    frame=  269 fps=5.6 q=42.0 size=    4673kB time=00:00:08.58 bitrate=4459.6kbits/s speed=0.18x    frame=  275 fps=5.7 q=42.0 size=    4673kB time=00:00:08.83 bitrate=4333.4kbits/s speed=0.183x    frame=  280 fps=5.7 q=42.0 size=    4673kB time=00:00:09.04 bitrate=4233.3kbits/s speed=0.185x    frame=  284 fps=5.8 q=42.0 size=    4673kB time=00:00:09.20 bitrate=4156.9kbits/s speed=0.187x    frame=  289 fps=5.8 q=41.0 size=    4673kB time=00:00:09.41 bitrate=4064.7kbits/s speed=0.188x    frame=  294 fps=5.8 q=41.0 size=    4673kB time=00:00:09.62 bitrate=3976.9kbits/s speed=0.19x    frame=  300 fps=5.8 q=41.0 size=    4673kB time=00:00:09.87 bitrate=3876.2kbits/s speed=0.192x    frame=  307 fps=5.9 q=41.0 size=    4673kB time=00:00:10.16 bitrate=3764.9kbits/s speed=0.195x    frame=  312 fps=5.9 q=41.0 size=    4673kB time=00:00:10.37 bitrate=3689.4kbits/s speed=0.197x    frame=  317 fps=6.0 q=40.0 size=    4673kB time=00:00:10.58 bitrate=3616.9kbits/s speed=0.199x    frame=  321 fps=6.0 q=38.0 size=    4673kB time=00:00:10.75 bitrate=3560.7kbits/s speed= 0.2x    frame=  322 fps=5.9 q=40.0 size=    4673kB time=00:00:10.79 bitrate=3546.9kbits/s speed=0.198x    frame=  331 fps=6.0 q=40.0 size=    6175kB time=00:00:11.16 bitrate=4529.6kbits/s speed=0.203x    frame=  336 fps=6.0 q=40.0 size=    6175kB time=00:00:11.37 bitrate=4446.7kbits/s speed=0.205x    frame=  340 fps=6.1 q=40.0 size=    6175kB time=00:00:11.54 bitrate=4382.4kbits/s speed=0.206x    frame=  348 fps=6.1 q=40.0 size=    6175kB time=00:00:11.87 bitrate=4259.5kbits/s speed=0.208x    frame=  356 fps=6.2 q=39.0 size=    6175kB time=00:00:12.20 bitrate=4143.4kbits/s speed=0.212x    frame=  364 fps=6.2 q=39.0 size=    6175kB time=00:00:12.54 bitrate=4033.0kbits/s speed=0.215x    frame=  372 fps=6.3 q=39.0 size=    6175kB time=00:00:12.87 bitrate=3928.7kbits/s speed=0.218x    frame=  380 fps=6.4 q=38.0 size=    6175kB time=00:00:13.20 bitrate=3829.7kbits/s speed=0.221x    frame=  387 fps=6.4 q=38.0 size=    6175kB time=00:00:13.50 bitrate=3746.8kbits/s speed=0.224x    frame=  392 fps=6.4 q=38.0 size=    6175kB time=00:00:13.70 bitrate=3690.0kbits/s speed=0.225x    frame=  400 fps=6.5 q=38.0 size=    6175kB time=00:00:14.04 bitrate=3602.2kbits/s speed=0.228x    frame=  407 fps=6.6 q=37.0 size=    6175kB time=00:00:14.33 bitrate=3529.1kbits/s speed=0.231x    frame=  413 fps=6.6 q=37.0 size=    6175kB time=00:00:14.58 bitrate=3468.6kbits/s speed=0.233x    frame=  420 fps=6.6 q=37.0 size=    6175kB time=00:00:14.87 bitrate=3400.5kbits/s speed=0.235x    frame=  427 fps=6.7 q=36.0 size=    7617kB time=00:00:15.16 bitrate=4113.8kbits/s speed=0.238x    frame=  428 fps=6.7 q=36.0 size=    7617kB time=00:00:15.20 bitrate=4102.7kbits/s speed=0.237x    frame=  435 fps=6.7 q=36.0 size=    7617kB time=00:00:15.50 bitrate=4025.4kbits/s speed=0.239x    frame=  438 fps=6.7 q=36.0 size=    7617kB time=00:00:15.62 bitrate=3993.2kbits/s speed=0.239x    frame=  444 fps=6.7 q=36.0 size=    7617kB time=00:00:15.87 bitrate=3930.3kbits/s speed=0.241x    frame=  448 fps=6.7 q=36.0 size=    7617kB time=00:00:16.04 bitrate=3889.4kbits/s speed=0.241x    frame=  453 fps=6.8 q=36.0 size=    7617kB time=00:00:16.25 bitrate=3839.6kbits/s speed=0.242x    frame=  456 fps=6.7 q=36.0 size=    7617kB time=00:00:16.37 bitrate=3810.3kbits/s speed=0.242x    frame=  461 fps=6.7 q=36.0 size=    7617kB time=00:00:16.58 bitrate=3762.5kbits/s speed=0.242x    frame=  467 fps=6.7 q=36.0 size=    7617kB time=00:00:16.83 bitrate=3706.7kbits/s speed=0.243x    frame=  475 fps=6.8 q=36.0 size=    7617kB time=00:00:17.16 bitrate=3634.5kbits/s speed=0.245x    frame=  484 fps=6.8 q=36.0 size=    8911kB time=00:00:17.54 bitrate=4160.9kbits/s speed=0.246x    frame=  492 fps=6.8 q=36.0 size=    8911kB time=00:00:17.87 bitrate=4083.4kbits/s speed=0.248x    frame=  500 fps=6.9 q=36.0 size=    8911kB time=00:00:18.20 bitrate=4008.7kbits/s speed=0.25x    frame=  500 fps=6.4 q=-1.0 Lsize=   10733kB time=00:00:20.70 bitrate=4245.8kbits/s speed=0.265x    
video:10729kB audio:0kB subtitle:0kB other streams:0kB global headers:0kB muxing overhead: 0.043592%
bench: utime=245.348s
bench: maxrss=1816752kB
[libx264 @ 0x2b05120] frame I:8     Avg QP:31.61  size: 82759
[libx264 @ 0x2b05120] frame P:269   Avg QP:36.67  size: 27145
[libx264 @ 0x2b05120] frame B:223   Avg QP:35.80  size: 13548
[libx264 @ 0x2b05120] consecutive B-frames: 37.0%  8.4%  6.6% 48.0%
[libx264 @ 0x2b05120] mb I  I16..4: 42.4% 56.0%  1.6%
[libx264 @ 0x2b05120] mb P  I16..4: 21.4% 17.7%  0.1%  P16..4: 16.0%  1.0%  0.6%  0.0%  0.0%    skip:43.2%
[libx264 @ 0x2b05120] mb B  I16..4:  0.9%  1.2%  0.0%  B16..8: 25.4%  1.1%  0.1%  direct: 0.4%  skip:70.8%  L0:39.4% L1:59.4% BI: 1.2%
[libx264 @ 0x2b05120] final ratefactor: 33.54
[libx264 @ 0x2b05120] 8x8 transform intra:46.3% inter:91.1%
[libx264 @ 0x2b05120] direct mvs  spatial:98.7% temporal:1.3%
[libx264 @ 0x2b05120] coded y,uvDC,uvAC intra: 5.7% 17.6% 0.5% inter: 1.9% 2.3% 0.0%
[libx264 @ 0x2b05120] i16 v,h,dc,p: 36% 32%  6% 26%
[libx264 @ 0x2b05120] i8 v,h,dc,ddl,ddr,vr,hd,vl,hu: 11%  8% 66%  2%  2%  2%  3%  2%  3%
[libx264 @ 0x2b05120] i4 v,h,dc,ddl,ddr,vr,hd,vl,hu: 13% 15%  9%  8% 14% 11% 15%  6% 10%
[libx264 @ 0x2b05120] i8c dc,h,v,p: 88%  8%  4%  1%
[libx264 @ 0x2b05120] Weighted P-Frames: Y:1.1% UV:0.7%
[libx264 @ 0x2b05120] ref P L0: 63.5% 12.7% 13.6%  4.7%  4.0%  1.6%
[libx264 @ 0x2b05120] ref B L0: 88.6%  7.7%  3.1%  0.6%
[libx264 @ 0x2b05120] ref B L1: 97.8%  2.2%
[libx264 @ 0x2b05120] kb/s:4218.37
